<svg viewBox="0 0 449 123" version="1.1" xmlns="http://www.w3.org/2000/svg" xmlns:xlink="http://www.w3.org/1999/xlink">
    <g id="Page-1" stroke="none" stroke-width="1" fill="none" fill-rule="evenodd">
        <g id="logo-cynasure-primary">
            <g id="Group" fill="#F18A00">
                <g transform="translate(0.000000, 22.000000)">
                    <polygon id="Path" points="85.2 60.5 85.2 0.4 98.8 24 98.8 3.7 105.1 3.7 105.1 60.6 98.8 60.6 98.8 35.4 91.4 23.2 91.4 60.6 85.2 60.6"></polygon>
                    <path d="M49.7,48.4 C47.4,47.7 45.7,46.5 44.4,44.7 C43.3,42.9 42.6,40.6 42.6,38 L42.6,3.7 L48.8,3.7 L48.8,38 C48.8,41.1 50.7,42.5 52.7,42.5 C54.3,42.5 56.7,41.6 56.7,38 L56.7,3.7 L62.9,3.7 L62.9,38 C62.9,43.6 60.4,47.1 55.9,48.4 L55.9,60.5 L49.7,60.5 L49.7,48.4 Z" id="Path"></path>
                    <path d="M127.3,13.4 C127.3,6.9 132.6,3.7 137.5,3.7 C144.7,3.7 147.8,9.1 147.8,13.4 L147.8,50.9 C147.8,59.1 140.5,60.6 137.7,60.6 C132.7,60.6 127.3,57.7 127.3,50.9 L127.3,13.4 Z M133.5,49.2 C133.5,51.2 133.5,54.3 137.6,54.3 C141.5,54.3 141.5,50.9 141.5,49.2 L141.5,14.9 C141.5,13.2 141.5,9.8 137.5,9.8 C133.5,9.8 133.5,13.3 133.5,14.9 L133.5,49.2 Z" id="Shape" fill-rule="nonzero"></path>
                    <path d="M204.4,3.7 L204.4,49.7 C204.4,50.5 204.4,54.4 208.2,54.4 C212.2,54.4 212.2,50.8 212.2,49.7 L212.2,3.7 L218.4,3.7 L218.4,49.7 C218.4,52 218.2,55.2 215.6,57.8 C213.7,59.7 211,60.6 208.3,60.6 C205.3,60.6 198.2,59.5 198.2,49.7 L198.2,3.7 L204.4,3.7 Z" id="Path"></path>
                    <path d="M240.7,0.5 C255.3,4.5 261.2,16.4 261.2,26.1 C261.2,35.3 256.3,40.6 254.7,42.4 C261.2,43.1 261.2,46.9 261.2,51.1 L261.2,60.7 L255,60.7 L255,51 C255,49.1 254.8,48.2 252.3,48.2 L247,48.2 L247,60.6 L240.8,60.6 L240.8,0.5 L240.7,0.5 Z M246.9,42.3 C253.1,37.9 254.9,31.5 254.9,26.8 C254.9,23.6 254,16 246.9,10.5 L246.9,42.3 Z" id="Shape" fill-rule="nonzero"></path>
                    <path d="M282.1,3.7 L299.9,3.7 L299.9,10 L288.3,10 L288.3,42.9 L299.9,42.9 L299.9,48.7 L288.3,48.7 L288.3,51 C288.3,53 288.3,54.2 290.6,54.2 L299.8,54.2 L299.8,60.4 L290.6,60.4 C282.3,60.4 282,53.7 282,50.9 L282,3.7 L282.1,3.7 Z" id="Path"></path>
                    <path d="M16.5,51.9 C11.6,46.6 7.5,38.4 7.5,31 C7.5,20.7 13,12.6 20.6,6.8 L25,3.6 L15.7,3.6 C7.1,10.3 0.8,19.5 0.8,31.2 C0.8,43 8.7,55.4 18,60.4 L27.8,60.4 C27.8,60.4 22.8,57.1 22,56.6 C21.1,56.1 18.5,54.1 16.5,51.9 Z" id="Path"></path>
                </g>
                <path d="M307.2,31.9 C305.5,31.9 304.1,30.6 304.1,28.8 C304.1,27 305.6,25.7 307.2,25.7 C308.9,25.7 310.3,27 310.3,28.8 C310.3,30.7 308.8,31.9 307.2,31.9 Z M307.2,26.3 C305.8,26.3 304.6,27.5 304.6,28.9 C304.6,30.3 305.7,31.5 307.2,31.5 C308.6,31.5 309.7,30.3 309.7,28.9 C309.7,27.4 308.6,26.3 307.2,26.3 Z M307.3,27.1 C307.9,27.1 308.5,27.3 308.5,28 C308.5,28.4 308.2,28.7 307.8,28.8 C308.3,28.9 308.3,29.1 308.4,29.6 C308.5,29.9 308.5,30.3 308.6,30.5 L308,30.5 C308,30.3 307.9,30.1 307.9,29.9 C307.9,29.7 307.9,29.4 307.8,29.3 C307.7,29.1 307.6,29 307.4,29 L306.7,29 L306.7,30.5 L306.1,30.5 L306.1,27.1 L307.3,27.1 Z M306.5,27.5 L306.5,28.5 L307.2,28.5 C307.7,28.5 307.8,28.3 307.8,28 C307.8,27.7 307.7,27.5 307.2,27.5 L306.5,27.5 Z" id="Shape" fill-rule="nonzero"></path>
                <path d="M181.1,75.5 C179.9,72.4 178.4,68.9 176.7,64.3 C173,54.7 171.3,47.5 171.3,37.6 C171.3,23.9 175.9,10.9 182.4,-7.10542736e-15 L175.7,-7.10542736e-15 C166.4,16.8 164.7,32.3 165.4,44.1 C165.4,44.1 165.4,44.3 165.4,44.6 C165.5,45.4 165.5,46.1 165.6,46.9 C166,50.5 167.4,57.7 171.7,68.9 C171.9,69.3 172,69.7 172.2,70.1 C172.7,71.1 174.5,75 175.7,80.3 C176.3,82.5 176.8,84.9 176.9,87.5 C176.9,87.7 177,88.6 176.9,90.1 C176.9,91.6 176.8,93.1 176.6,94.5 C176.6,94.5 176.6,94.6 176.6,94.6 C176.6,94.6 176.6,94.7 176.6,94.7 C176.6,94.8 176.6,94.8 176.6,94.9 C176.6,95 176.6,95.1 176.6,95.3 C176.6,95.4 176.6,95.4 176.6,95.5 C176.6,95.7 176.6,95.8 176.5,96 C176.5,96.1 176.5,96.1 176.5,96.2 C176.5,96.4 176.4,96.7 176.4,96.9 C176.4,97 176.4,97 176.4,97.1 C176.4,97.4 176.3,97.7 176.3,98 C176.3,98 176.3,98.1 176.3,98.1 C176.2,98.4 176.2,98.8 176.1,99.2 C176.1,99.2 176.1,99.3 176.1,99.3 C176,99.7 175.9,100.1 175.9,100.5 C175.9,100.6 175.9,100.6 175.9,100.7 C175.8,101.1 175.7,101.5 175.6,102 C175.6,102.1 175.6,102.1 175.6,102.2 C175.5,102.6 175.4,103.1 175.3,103.6 C175.3,103.7 175.3,103.7 175.3,103.8 C175.2,104.3 175,104.8 174.9,105.3 C174.9,105.3 174.9,105.4 174.9,105.4 C174.4,107 173.8,108.7 173.2,110.5 C173.2,110.5 173.2,110.6 173.2,110.6 C173,111.2 172.7,111.7 172.5,112.3 C172.5,112.4 172.5,112.4 172.4,112.5 C172.2,113 171.9,113.6 171.6,114.1 C171.6,114.2 171.5,114.2 171.5,114.3 C171.2,114.8 171,115.4 170.7,115.9 C170.7,115.9 170.7,116 170.7,116 C170.6,116.2 170.5,116.4 170.4,116.6 L177.1,116.6 C177.6,114 187.3,94.3 181.1,75.5 Z" id="Path"></path>
            </g>
            <g id="Group" transform="translate(198.000000, 95.000000)" fill="#0F206C">
                <path d="M15.1,21.1 L13.9,17.7 L5.7,17.7 L4.5,21.1 L0,21.1 L7.4,1.1 L12.5,1.1 L19.8,21.1 L15.1,21.1 Z M9.9,5.4 L6.9,14 L12.8,14 L9.9,5.4 Z" id="Shape" fill-rule="nonzero"></path>
                <polygon id="Path" points="41.6 21.1 41.6 12.7 32.6 12.7 32.6 21.1 28.6 21.1 28.6 1.1 32.6 1.1 32.6 9 41.6 9 41.6 1.1 45.7 1.1 45.7 21.1"></polygon>
                <path d="M47.7,13.9 C47.7,9.8 50.4,6.3 55,6.3 C59.6,6.3 62.3,9.8 62.3,13.9 C62.3,18 59.6,21.5 55,21.5 C50.4,21.5 47.7,18 47.7,13.9 Z M58.5,13.9 C58.5,11.7 57.2,9.7 55,9.7 C52.7,9.7 51.5,11.7 51.5,13.9 C51.5,16.2 52.8,18.1 55,18.1 C57.2,18.1 58.5,16.1 58.5,13.9 Z" id="Shape" fill-rule="nonzero"></path>
                <polygon id="Path" points="64.2 21.1 64.2 1.1 67.8 1.1 67.8 21.1"></polygon>
                <path d="M69.3,13.9 C69.3,9.8 72,6.3 76.6,6.3 C81.2,6.3 83.9,9.8 83.9,13.9 C83.9,18 81.2,21.5 76.6,21.5 C72,21.5 69.3,18 69.3,13.9 Z M80.1,13.9 C80.1,11.7 78.8,9.7 76.6,9.7 C74.3,9.7 73.1,11.7 73.1,13.9 C73.1,16.2 74.4,18.1 76.6,18.1 C78.8,18.1 80.1,16.1 80.1,13.9 Z" id="Shape" fill-rule="nonzero"></path>
                <path d="M86.1,24.8 L87.7,22 C88.8,23.3 90.3,23.8 92,23.8 C93.7,23.8 95.8,23 95.8,20.1 L95.8,18.6 C94.7,20 93.2,20.9 91.6,20.9 C88.2,20.9 85.5,18.3 85.5,13.5 C85.5,8.8 88.1,6.1 91.6,6.1 C93.3,6.1 94.7,6.9 95.8,8.3 L95.8,6.4 L99.4,6.4 L99.4,19.9 C99.4,25.4 95.4,26.8 92,26.8 C89.6,27 87.8,26.4 86.1,24.8 Z M95.8,16 L95.8,11.3 C95.2,10.3 93.9,9.6 92.7,9.6 C90.6,9.6 89.2,11.1 89.2,13.6 C89.2,16.1 90.6,17.6 92.7,17.6 C93.9,17.6 95.2,16.9 95.8,16 Z" id="Shape" fill-rule="nonzero"></path>
                <path d="M102.5,2.8 C102.5,1.5 103.5,0.6 104.7,0.6 C105.9,0.6 106.9,1.6 106.9,2.8 C106.9,4.1 105.9,5.1 104.7,5.1 C103.5,5.1 102.5,4 102.5,2.8 Z M102.9,21.1 L102.9,6.6 L106.5,6.6 L106.5,21.1 L102.9,21.1 Z" id="Shape" fill-rule="nonzero"></path>
                <path d="M109.1,13.9 C109.1,9.5 112.1,6.3 116.4,6.3 C119.2,6.3 120.9,7.6 121.8,8.9 L119.4,11.2 C118.7,10.2 117.7,9.6 116.5,9.6 C114.3,9.6 112.8,11.3 112.8,13.8 C112.8,16.3 114.3,18 116.5,18 C117.8,18 118.8,17.4 119.4,16.4 L121.8,18.7 C120.9,20 119.2,21.3 116.4,21.3 C112.1,21.5 109.1,18.3 109.1,13.9 Z" id="Path"></path>
                <path d="M130.4,11.1 C130.4,5 134.8,0.8 140.5,0.8 C144.7,0.8 147.1,3.2 148.5,5.7 L145,7.5 C144.2,5.9 142.5,4.6 140.5,4.6 C137.1,4.6 134.5,7.4 134.5,11.2 C134.5,15 137,17.8 140.5,17.8 C142.5,17.8 144.2,16.5 145,14.9 L148.5,16.7 C147.1,19.2 144.7,21.6 140.5,21.6 C134.8,21.5 130.4,17.3 130.4,11.1 Z" id="Path"></path>
                <path d="M148.6,13.9 C148.6,9.8 151.3,6.3 155.9,6.3 C160.5,6.3 163.2,9.8 163.2,13.9 C163.2,18 160.5,21.5 155.9,21.5 C151.3,21.5 148.6,18 148.6,13.9 Z M159.4,13.9 C159.4,11.7 158.1,9.7 155.9,9.7 C153.6,9.7 152.4,11.7 152.4,13.9 C152.4,16.2 153.7,18.1 155.9,18.1 C158.1,18.1 159.4,16.1 159.4,13.9 Z" id="Shape" fill-rule="nonzero"></path>
                <path d="M182.2,21.1 L182.2,12 C182.2,10.6 181.6,9.7 180.1,9.7 C178.8,9.7 177.8,10.6 177.2,11.4 L177.2,21.2 L173.6,21.2 L173.6,12 C173.6,10.6 173,9.7 171.5,9.7 C170.2,9.7 169.2,10.6 168.7,11.4 L168.7,21.2 L165.1,21.2 L165.1,6.7 L168.7,6.7 L168.7,8.6 C169.3,7.7 171.1,6.4 173.2,6.4 C175.2,6.4 176.5,7.4 177,9 C177.8,7.7 179.6,6.4 181.7,6.4 C184.2,6.4 185.7,7.8 185.7,10.8 L185.7,21.3 L182.2,21.3 L182.2,21.1 Z" id="Path"></path>
                <path d="M192.9,19.3 L192.9,26.7 L189.3,26.7 L189.3,6.7 L192.9,6.7 L192.9,8.5 C194,7.1 195.5,6.3 197.1,6.3 C200.6,6.3 203.2,9.1 203.2,13.9 C203.2,18.7 200.6,21.5 197.1,21.5 C195.5,21.5 194,20.8 192.9,19.3 Z M199.5,13.9 C199.5,11.4 198.1,9.7 196,9.7 C194.8,9.7 193.5,10.4 192.9,11.4 L192.9,16.5 C193.5,17.4 194.8,18.1 196,18.1 C198.1,18.1 199.5,16.4 199.5,13.9 Z" id="Shape" fill-rule="nonzero"></path>
                <path d="M214,21.1 L214,19.6 C213.1,20.8 211.4,21.5 209.6,21.5 C207.4,21.5 204.8,19.9 204.8,16.7 C204.8,13.3 207.4,12 209.6,12 C211.4,12 213,12.6 214,13.8 L214,11.8 C214,10.3 212.8,9.4 211,9.4 C209.5,9.4 208.2,10 207,11.1 L205.6,8.6 C207.3,7 209.4,6.3 211.6,6.3 C214.7,6.3 217.6,7.6 217.6,11.8 L217.6,21.2 L214,21.2 L214,21.1 Z M214,17.6 L214,15.8 C213.4,15 212.3,14.5 211.1,14.5 C209.7,14.5 208.5,15.3 208.5,16.7 C208.5,18 209.7,18.8 211.1,18.8 C212.3,18.9 213.4,18.5 214,17.6 Z" id="Shape" fill-rule="nonzero"></path>
                <path d="M230.4,21.1 L230.4,12.3 C230.4,10.3 229.4,9.6 227.9,9.6 C226.5,9.6 225.4,10.4 224.8,11.3 L224.8,21.1 L221.2,21.1 L221.2,6.6 L224.8,6.6 L224.8,8.5 C225.7,7.4 227.4,6.3 229.6,6.3 C232.6,6.3 234.1,8.1 234.1,10.9 L234.1,21.1 L230.4,21.1 Z" id="Path"></path>
                <path d="M237.5,23.4 C237.8,23.5 238.3,23.6 238.6,23.6 C239.5,23.6 240.2,23.3 240.5,22.6 L241,21.4 L235.4,6.7 L239.3,6.7 L242.9,16.8 L246.5,6.7 L250.4,6.7 L243.9,23.6 C242.9,26.3 241,27 238.7,27.1 C238.3,27.1 237.4,27 236.9,26.9 L237.5,23.4 Z" id="Path"></path>
            </g>
        </g>
    </g>
</svg>