<?xml version="1.0" encoding="utf-8"?>
<!-- Generator: Adobe Illustrator 23.0.0, SVG Export Plug-In . SVG Version: 6.00 Build 0)  -->
<svg version="1.1" id="Layer_1" xmlns="http://www.w3.org/2000/svg" xmlns:xlink="http://www.w3.org/1999/xlink" x="0px" y="0px"
	 viewBox="0 0 449 123" style="enable-background:new 0 0 449 123;" xml:space="preserve">
<style type="text/css">
	.st0{fill-rule:evenodd;clip-rule:evenodd;fill:#FFFFFF;}
	.st1{fill:#FFFFFF;}
</style>
<g id="Page-1">
	<g id="logo-cynasure-primary">
		<g id="Group">
			<g transform="translate(0.000000, 22.000000)">
				<polygon id="Path" class="st0" points="85.2,60.5 85.2,0.4 98.8,24 98.8,3.7 105.1,3.7 105.1,60.6 98.8,60.6 98.8,35.4 
					91.4,23.2 91.4,60.6 85.2,60.6 				"/>
				<path class="st0" d="M49.7,48.4c-2.3-0.7-4-1.9-5.3-3.7c-1.1-1.8-1.8-4.1-1.8-6.7V3.7h6.2V38c0,3.1,1.9,4.5,3.9,4.5
					c1.6,0,4-0.9,4-4.5V3.7h6.2V38c0,5.6-2.5,9.1-7,10.4v12.1h-6.2V48.4z"/>
				<path id="Shape" class="st1" d="M127.3,13.4c0-6.5,5.3-9.7,10.2-9.7c7.2,0,10.3,5.4,10.3,9.7v37.5c0,8.2-7.3,9.7-10.1,9.7
					c-5,0-10.4-2.9-10.4-9.7V13.4z M133.5,49.2c0,2,0,5.1,4.1,5.1c3.9,0,3.9-3.4,3.9-5.1V14.9c0-1.7,0-5.1-4-5.1s-4,3.5-4,5.1V49.2z
					"/>
				<path class="st0" d="M204.4,3.7v46c0,0.8,0,4.7,3.8,4.7c4,0,4-3.6,4-4.7v-46h6.2v46c0,2.3-0.2,5.5-2.8,8.1
					c-1.9,1.9-4.6,2.8-7.3,2.8c-3,0-10.1-1.1-10.1-10.9v-46H204.4z"/>
				<path class="st1" d="M240.7,0.5c14.6,4,20.5,15.9,20.5,25.6c0,9.2-4.9,14.5-6.5,16.3c6.5,0.7,6.5,4.5,6.5,8.7v9.6H255V51
					c0-1.9-0.2-2.8-2.7-2.8H247v12.4h-6.2V0.5H240.7z M246.9,42.3c6.2-4.4,8-10.8,8-15.5c0-3.2-0.9-10.8-8-16.3V42.3z"/>
				<path class="st0" d="M282.1,3.7h17.8V10h-11.6v32.9h11.6v5.8h-11.6V51c0,2,0,3.2,2.3,3.2h9.2v6.2h-9.2c-8.3,0-8.6-6.7-8.6-9.5
					V3.7H282.1z"/>
				<path class="st0" d="M16.5,51.9c-4.9-5.3-9-13.5-9-20.9c0-10.3,5.5-18.4,13.1-24.2L25,3.6h-9.3C7.1,10.3,0.8,19.5,0.8,31.2
					C0.8,43,8.7,55.4,18,60.4h9.8c0,0-5-3.3-5.8-3.8C21.1,56.1,18.5,54.1,16.5,51.9z"/>
			</g>
			<path class="st1" d="M307.2,31.9c-1.7,0-3.1-1.3-3.1-3.1c0-1.8,1.5-3.1,3.1-3.1c1.7,0,3.1,1.3,3.1,3.1
				C310.3,30.7,308.8,31.9,307.2,31.9z M307.2,26.3c-1.4,0-2.6,1.2-2.6,2.6s1.1,2.6,2.6,2.6c1.4,0,2.5-1.2,2.5-2.6
				C309.7,27.4,308.6,26.3,307.2,26.3z M307.3,27.1c0.6,0,1.2,0.2,1.2,0.9c0,0.4-0.3,0.7-0.7,0.8c0.5,0.1,0.5,0.3,0.6,0.8
				c0.1,0.3,0.1,0.7,0.2,0.9H308c0-0.2-0.1-0.4-0.1-0.6c0-0.2,0-0.5-0.1-0.6c-0.1-0.2-0.2-0.3-0.4-0.3h-0.7v1.5h-0.6v-3.4H307.3z
				 M306.5,27.5v1h0.7c0.5,0,0.6-0.2,0.6-0.5s-0.1-0.5-0.6-0.5H306.5z"/>
			<path class="st0" d="M181.1,75.5c-1.2-3.1-2.7-6.6-4.4-11.2c-3.7-9.6-5.4-16.8-5.4-26.7c0-13.7,4.6-26.7,11.1-37.6h-6.7
				c-9.3,16.8-11,32.3-10.3,44.1c0,0,0,0.2,0,0.5c0.1,0.8,0.1,1.5,0.2,2.3c0.4,3.6,1.8,10.8,6.1,22c0.2,0.4,0.3,0.8,0.5,1.2
				c0.5,1,2.3,4.9,3.5,10.2c0.6,2.2,1.1,4.6,1.2,7.2c0,0.2,0.1,1.1,0,2.6c0,1.5-0.1,3-0.3,4.4v0.1v0.1c0,0.1,0,0.1,0,0.2
				s0,0.2,0,0.4c0,0.1,0,0.1,0,0.2c0,0.2,0,0.3-0.1,0.5c0,0.1,0,0.1,0,0.2c0,0.2-0.1,0.5-0.1,0.7c0,0.1,0,0.1,0,0.2
				c0,0.3-0.1,0.6-0.1,0.9v0.1c-0.1,0.3-0.1,0.7-0.2,1.1v0.1c-0.1,0.4-0.2,0.8-0.2,1.2c0,0.1,0,0.1,0,0.2c-0.1,0.4-0.2,0.8-0.3,1.3
				c0,0.1,0,0.1,0,0.2c-0.1,0.4-0.2,0.9-0.3,1.4c0,0.1,0,0.1,0,0.2c-0.1,0.5-0.3,1-0.4,1.5v0.1c-0.5,1.6-1.1,3.3-1.7,5.1v0.1
				c-0.2,0.6-0.5,1.1-0.7,1.7c0,0.1,0,0.1-0.1,0.2c-0.2,0.5-0.5,1.1-0.8,1.6c0,0.1-0.1,0.1-0.1,0.2c-0.3,0.5-0.5,1.1-0.8,1.6v0.1
				c-0.1,0.2-0.2,0.4-0.3,0.6h6.7C177.6,114,187.3,94.3,181.1,75.5z"/>
		</g>
		<g transform="translate(198.000000, 95.000000)">
			<path class="st1" d="M15.1,21.1l-1.2-3.4H5.7l-1.2,3.4H0l7.4-20h5.1l7.3,20H15.1z M9.9,5.4l-3,8.6h5.9L9.9,5.4z"/>
			<polygon class="st0" points="41.6,21.1 41.6,12.7 32.6,12.7 32.6,21.1 28.6,21.1 28.6,1.1 32.6,1.1 32.6,9 41.6,9 41.6,1.1 
				45.7,1.1 45.7,21.1 			"/>
			<path class="st1" d="M47.7,13.9c0-4.1,2.7-7.6,7.3-7.6s7.3,3.5,7.3,7.6s-2.7,7.6-7.3,7.6S47.7,18,47.7,13.9z M58.5,13.9
				c0-2.2-1.3-4.2-3.5-4.2c-2.3,0-3.5,2-3.5,4.2c0,2.3,1.3,4.2,3.5,4.2S58.5,16.1,58.5,13.9z"/>
			<polygon class="st0" points="64.2,21.1 64.2,1.1 67.8,1.1 67.8,21.1 			"/>
			<path class="st1" d="M69.3,13.9c0-4.1,2.7-7.6,7.3-7.6s7.3,3.5,7.3,7.6s-2.7,7.6-7.3,7.6S69.3,18,69.3,13.9z M80.1,13.9
				c0-2.2-1.3-4.2-3.5-4.2c-2.3,0-3.5,2-3.5,4.2c0,2.3,1.3,4.2,3.5,4.2C78.8,18.1,80.1,16.1,80.1,13.9z"/>
			<path class="st1" d="M86.1,24.8l1.6-2.8c1.1,1.3,2.6,1.8,4.3,1.8s3.8-0.8,3.8-3.7v-1.5c-1.1,1.4-2.6,2.3-4.2,2.3
				c-3.4,0-6.1-2.6-6.1-7.4c0-4.7,2.6-7.4,6.1-7.4c1.7,0,3.1,0.8,4.2,2.2V6.4h3.6v13.5c0,5.5-4,6.9-7.4,6.9
				C89.6,27,87.8,26.4,86.1,24.8z M95.8,16v-4.7c-0.6-1-1.9-1.7-3.1-1.7c-2.1,0-3.5,1.5-3.5,4s1.4,4,3.5,4
				C93.9,17.6,95.2,16.9,95.8,16z"/>
			<path class="st1" d="M102.5,2.8c0-1.3,1-2.2,2.2-2.2c1.2,0,2.2,1,2.2,2.2c0,1.3-1,2.3-2.2,2.3C103.5,5.1,102.5,4,102.5,2.8z
				 M102.9,21.1V6.6h3.6v14.5H102.9z"/>
			<path class="st0" d="M109.1,13.9c0-4.4,3-7.6,7.3-7.6c2.8,0,4.5,1.3,5.4,2.6l-2.4,2.3c-0.7-1-1.7-1.6-2.9-1.6
				c-2.2,0-3.7,1.7-3.7,4.2s1.5,4.2,3.7,4.2c1.3,0,2.3-0.6,2.9-1.6l2.4,2.3c-0.9,1.3-2.6,2.6-5.4,2.6
				C112.1,21.5,109.1,18.3,109.1,13.9z"/>
			<path class="st0" d="M130.4,11.1c0-6.1,4.4-10.3,10.1-10.3c4.2,0,6.6,2.4,8,4.9L145,7.5c-0.8-1.6-2.5-2.9-4.5-2.9
				c-3.4,0-6,2.8-6,6.6s2.5,6.6,6,6.6c2,0,3.7-1.3,4.5-2.9l3.5,1.8c-1.4,2.5-3.8,4.9-8,4.9C134.8,21.5,130.4,17.3,130.4,11.1z"/>
			<path class="st1" d="M148.6,13.9c0-4.1,2.7-7.6,7.3-7.6c4.6,0,7.3,3.5,7.3,7.6s-2.7,7.6-7.3,7.6C151.3,21.5,148.6,18,148.6,13.9z
				 M159.4,13.9c0-2.2-1.3-4.2-3.5-4.2c-2.3,0-3.5,2-3.5,4.2c0,2.3,1.3,4.2,3.5,4.2C158.1,18.1,159.4,16.1,159.4,13.9z"/>
			<path class="st0" d="M182.2,21.1V12c0-1.4-0.6-2.3-2.1-2.3c-1.3,0-2.3,0.9-2.9,1.7v9.8h-3.6V12c0-1.4-0.6-2.3-2.1-2.3
				c-1.3,0-2.3,0.9-2.8,1.7v9.8h-3.6V6.7h3.6v1.9c0.6-0.9,2.4-2.2,4.5-2.2c2,0,3.3,1,3.8,2.6c0.8-1.3,2.6-2.6,4.7-2.6
				c2.5,0,4,1.4,4,4.4v10.5h-3.5V21.1z"/>
			<path class="st1" d="M192.9,19.3v7.4h-3.6v-20h3.6v1.8c1.1-1.4,2.6-2.2,4.2-2.2c3.5,0,6.1,2.8,6.1,7.6s-2.6,7.6-6.1,7.6
				C195.5,21.5,194,20.8,192.9,19.3z M199.5,13.9c0-2.5-1.4-4.2-3.5-4.2c-1.2,0-2.5,0.7-3.1,1.7v5.1c0.6,0.9,1.9,1.6,3.1,1.6
				C198.1,18.1,199.5,16.4,199.5,13.9z"/>
			<path class="st1" d="M214,21.1v-1.5c-0.9,1.2-2.6,1.9-4.4,1.9c-2.2,0-4.8-1.6-4.8-4.8c0-3.4,2.6-4.7,4.8-4.7
				c1.8,0,3.4,0.6,4.4,1.8v-2c0-1.5-1.2-2.4-3-2.4c-1.5,0-2.8,0.6-4,1.7l-1.4-2.5c1.7-1.6,3.8-2.3,6-2.3c3.1,0,6,1.3,6,5.5v9.4H214
				V21.1z M214,17.6v-1.8c-0.6-0.8-1.7-1.3-2.9-1.3c-1.4,0-2.6,0.8-2.6,2.2c0,1.3,1.2,2.1,2.6,2.1C212.3,18.9,213.4,18.5,214,17.6z"
				/>
			<path class="st0" d="M230.4,21.1v-8.8c0-2-1-2.7-2.5-2.7c-1.4,0-2.5,0.8-3.1,1.7v9.8h-3.6V6.6h3.6v1.9c0.9-1.1,2.6-2.2,4.8-2.2
				c3,0,4.5,1.8,4.5,4.6v10.2H230.4z"/>
			<path class="st0" d="M237.5,23.4c0.3,0.1,0.8,0.2,1.1,0.2c0.9,0,1.6-0.3,1.9-1l0.5-1.2l-5.6-14.7h3.9l3.6,10.1l3.6-10.1h3.9
				l-6.5,16.9c-1,2.7-2.9,3.4-5.2,3.5c-0.4,0-1.3-0.1-1.8-0.2L237.5,23.4z"/>
		</g>
	</g>
</g>
</svg>
